<?xml version="1.0" encoding="UTF-8" standalone="no"?>
<!DOCTYPE svg PUBLIC "-//W3C//DTD SVG 20010904//EN"
              "http://www.w3.org/TR/2001/REC-SVG-20010904/DTD/svg10.dtd">

<svg xmlns="http://www.w3.org/2000/svg"
     width="5.55556in" height="5.55556in"
     viewBox="0 0 500 500">
  <path id="Selection"
        fill="black" stroke="none" stroke-width="0"
        d="M 0.00,129.00
           C 0.00,126.34 -0.48,118.49 1.02,116.60
             2.39,114.87 14.15,114.38 17.00,114.18
             17.00,114.18 37.00,115.87 37.00,115.87
             60.22,119.10 82.49,127.55 96.84,147.00
             113.06,168.98 121.48,201.12 130.69,227.00
             130.69,227.00 170.66,341.00 170.66,341.00
             170.66,341.00 185.95,385.00 185.95,385.00
             185.95,385.00 191.00,399.00 191.00,399.00
             191.00,399.00 212.67,336.00 212.67,336.00
             212.67,336.00 232.42,277.00 232.42,277.00
             232.42,277.00 243.42,245.00 243.42,245.00
             246.09,237.87 249.93,229.73 248.33,222.00
             248.33,222.00 237.42,190.00 237.42,190.00
             231.77,175.02 226.04,157.87 214.91,146.00
             208.44,139.11 201.05,134.44 192.00,131.72
             188.81,130.76 177.51,129.33 176.02,127.41
             174.56,125.52 175.00,118.56 175.00,116.00
             203.08,110.97 245.24,117.89 265.83,139.09
             284.30,158.11 295.31,193.93 303.67,219.00
             303.67,219.00 326.66,285.00 326.66,285.00
             326.66,285.00 348.58,348.00 348.58,348.00
             348.58,348.00 360.95,383.00 360.95,383.00
             363.28,389.37 364.08,394.25 368.00,400.00
             368.59,393.46 373.92,378.78 376.31,372.00
             376.31,372.00 390.67,330.00 390.67,330.00
             390.67,330.00 440.67,182.00 440.67,182.00
             440.67,182.00 456.33,136.00 456.33,136.00
             459.37,126.90 459.16,121.07 470.00,121.00
             470.00,121.00 487.00,121.00 487.00,121.00
             487.00,121.00 475.67,156.00 475.67,156.00
             475.67,156.00 453.34,222.00 453.34,222.00
             453.34,222.00 388.33,413.00 388.33,413.00
             388.33,413.00 366.68,476.00 366.68,476.00
             366.68,476.00 357.35,497.05 357.35,497.05
             357.35,497.05 345.00,499.00 345.00,499.00
             345.00,499.00 333.00,463.00 333.00,463.00
             333.00,463.00 305.69,385.00 305.69,385.00
             305.69,385.00 279.69,311.00 279.69,311.00
             279.69,311.00 263.00,265.00 263.00,265.00
             263.00,265.00 247.33,312.00 247.33,312.00
             247.33,312.00 221.34,388.00 221.34,388.00
             221.34,388.00 209.31,424.00 209.31,424.00
             209.31,424.00 192.33,474.00 192.33,474.00
             192.33,474.00 184.00,499.00 184.00,499.00
             180.77,499.00 175.08,499.35 172.34,497.71
             167.91,495.07 163.42,479.27 161.67,474.00
             161.67,474.00 139.58,411.00 139.58,411.00
             139.58,411.00 120.31,356.00 120.31,356.00
             120.31,356.00 64.69,198.00 64.69,198.00
             55.43,171.96 46.34,139.99 16.00,131.88
             10.74,130.48 5.45,129.25 0.00,129.00 Z" />
</svg>
